<svg width="174" height="67" viewBox="0 0 174 67" fill="none" xmlns="http://www.w3.org/2000/svg">
<g clip-path="url(#clip0_28_4550)">
<path d="M38.2493 16.2264V8.25812C38.2493 7.37802 37.5358 6.66446 36.6556 6.66446H35.062V1.88346C35.062 1.00336 34.3485 0.289793 33.4683 0.289793C31.2121 0.289793 27.7568 0.116881 23.7007 2.54682C21.1793 1.79631 19.3961 1.88346 17.5316 1.88346C16.6514 1.88346 15.938 2.59702 15.938 3.47713V6.66446H14.3443C13.4641 6.66446 12.7506 7.37802 12.7506 8.25812V16.2264C12.7506 22.7169 17.6258 28.0897 23.9063 28.8764V49.6934C23.9063 50.5735 24.6198 51.2871 25.5 51.2871C26.3802 51.2871 27.0936 50.5735 27.0936 49.6934V44.1156H29.4841C34.3172 44.1156 38.2493 40.1835 38.2493 35.3504V32.9599C38.2493 32.0798 37.5358 31.3663 36.6556 31.3663H32.6715C30.5544 31.3663 28.6102 32.1208 27.0936 33.375V28.8756C33.3648 28.099 38.2493 22.7528 38.2493 16.2264ZM35.062 16.2264C35.062 19.0627 33.8076 21.6243 31.8252 23.3806C31.8565 23.1249 31.8746 22.8652 31.8746 22.6011C31.8746 18.5653 30.3658 14.8757 27.8837 12.0649C29.988 10.629 32.483 9.85179 35.062 9.85179V16.2264ZM31.8746 3.47713V6.98598C31.5801 7.04594 31.2877 7.11437 30.9976 7.19076C29.9637 6.03346 28.7846 5.04748 27.4972 4.25075C28.8888 3.74197 30.366 3.47713 31.8746 3.47713ZM19.1253 5.07079C22.2914 5.07079 25.3661 6.2269 27.7573 8.43582C26.9681 8.8431 26.2114 9.31791 25.4953 9.85627C23.6424 8.46321 21.4773 7.46418 19.1253 6.98488V5.07079ZM15.938 16.2264V9.85179C22.9679 9.85179 28.6873 15.5711 28.6873 22.6011C28.6873 24.382 27.2166 25.8332 25.4162 25.787C19.8175 25.6487 15.938 21.2006 15.938 16.2264ZM32.6715 34.5536H35.062V35.3504C35.062 38.426 32.5598 40.9283 29.4841 40.9283H27.0936V40.1314C27.0936 37.0559 29.5959 34.5536 32.6715 34.5536Z"/>
</g>
<path d="M57.8516 21.0685H51.3935V25.1282H59.0216V28.2871H47.2869V11.2526H59.045V14.4232H51.3935V18.0149H57.8516V21.0685ZM67.3627 16.9152L70.1472 11.2526H74.8387L70.077 19.6997L74.9674 28.2871H70.2291L67.3627 22.5193L64.4963 28.2871H59.7697L64.6484 19.6997L59.8984 11.2526H64.5782L67.3627 16.9152ZM80.7346 22.5076V28.2871H76.6281V11.2526H83.4255C84.728 11.2526 85.8785 11.4944 86.8768 11.978C87.883 12.4538 88.6591 13.1362 89.205 14.0254C89.7588 14.9068 90.0357 15.909 90.0357 17.0322C90.0357 18.6935 89.439 20.0234 88.2457 21.0217C87.0601 22.0123 85.43 22.5076 83.3553 22.5076H80.7346ZM80.7346 19.337H83.4255C84.2211 19.337 84.8255 19.1381 85.2389 18.7403C85.6601 18.3425 85.8707 17.781 85.8707 17.0556C85.8707 16.26 85.6562 15.6243 85.2272 15.1486C84.7982 14.6728 84.2133 14.431 83.4723 14.4232H80.7346V19.337ZM96.657 25.1282H103.805V28.2871H92.5505V11.2526H96.657V25.1282ZM119.529 20.1209C119.529 21.7822 119.221 23.2524 118.605 24.5316C117.989 25.8107 117.111 26.7974 115.972 27.4915C114.841 28.1779 113.55 28.5211 112.1 28.5211C110.649 28.5211 109.362 28.1896 108.239 27.5266C107.116 26.8559 106.238 25.9004 105.607 24.6603C104.983 23.4201 104.655 21.9967 104.624 20.3899V19.4306C104.624 17.7615 104.928 16.2912 105.536 15.0199C106.153 13.7407 107.03 12.7541 108.169 12.0599C109.315 11.3657 110.618 11.0186 112.076 11.0186C113.519 11.0186 114.806 11.3618 115.937 12.0482C117.068 12.7346 117.946 13.7134 118.57 14.9848C119.201 16.2483 119.521 17.6991 119.529 19.337V20.1209ZM115.352 19.4072C115.352 17.7147 115.068 16.4316 114.498 15.558C113.937 14.6767 113.129 14.236 112.076 14.236C110.017 14.236 108.929 15.7803 108.812 18.869L108.8 20.1209C108.8 21.79 109.077 23.073 109.631 23.97C110.185 24.867 111.008 25.3154 112.1 25.3154C113.137 25.3154 113.937 24.8748 114.498 23.9934C115.06 23.112 115.344 21.8446 115.352 20.1911V19.4072ZM128.291 22.2736H126.068V28.2871H121.962V11.2526H128.666C130.686 11.2526 132.265 11.7011 133.404 12.5981C134.543 13.495 135.112 14.7625 135.112 16.4004C135.112 17.586 134.87 18.5687 134.387 19.3487C133.911 20.1287 133.162 20.7604 132.14 21.244L135.697 28.1116V28.2871H131.298L128.291 22.2736ZM126.068 19.103H128.666C129.446 19.103 130.031 18.9002 130.421 18.4946C130.818 18.0812 131.017 17.508 131.017 16.7748C131.017 16.0416 130.818 15.4683 130.421 15.055C130.023 14.6338 129.438 14.4232 128.666 14.4232H126.068V19.103ZM148.472 21.0685H142.014V25.1282H149.642V28.2871H137.908V11.2526H149.666V14.4232H142.014V18.0149H148.472V21.0685Z" fill="#DD2242"/>
<path d="M51.6626 50.2871H47.5677V33.2526H51.6626V50.2871ZM69.0591 50.2871H64.976L58.939 39.6874V50.2871H54.8325V33.2526H58.939L64.9643 43.8524V33.2526H69.0591V50.2871ZM71.9717 50.2871V33.2526H77.4587C78.9641 33.2526 80.3173 33.5958 81.5185 34.2822C82.7196 34.9608 83.6556 35.924 84.3264 37.172C85.0049 38.4121 85.3481 39.8044 85.3559 41.3487V42.1326C85.3559 43.6925 85.0244 45.0925 84.3615 46.3327C83.7063 47.565 82.7781 48.5322 81.577 49.2342C80.3836 49.9283 79.0499 50.2793 77.5757 50.2871H71.9717ZM76.0782 36.4232V47.1282H77.5055C78.6833 47.1282 79.5881 46.711 80.2198 45.8764C80.8516 45.034 81.1675 43.7861 81.1675 42.1326V41.3955C81.1675 39.7498 80.8516 38.5096 80.2198 37.675C79.5881 36.8405 78.6677 36.4232 77.4587 36.4232H76.0782ZM102.203 42.1209C102.203 43.7822 101.894 45.2524 101.278 46.5316C100.662 47.8107 99.7847 48.7974 98.6459 49.4915C97.515 50.1779 96.2241 50.5211 94.7734 50.5211C93.3227 50.5211 92.0357 50.1896 90.9126 49.5266C89.7894 48.8559 88.9119 47.9004 88.2802 46.6603C87.6562 45.4201 87.3286 43.9967 87.2974 42.3899V41.4306C87.2974 39.7615 87.6016 38.2912 88.21 37.0199C88.8261 35.7407 89.7036 34.7541 90.8424 34.0599C91.9889 33.3657 93.2915 33.0186 94.75 33.0186C96.1929 33.0186 97.4799 33.3618 98.6108 34.0482C99.7418 34.7346 100.619 35.7134 101.243 36.9848C101.875 38.2483 102.195 39.6991 102.203 41.337V42.1209ZM98.0259 41.4072C98.0259 39.7147 97.7412 38.4316 97.1718 37.558C96.6102 36.6767 95.803 36.236 94.75 36.236C92.6909 36.236 91.6028 37.7803 91.4858 40.869L91.4741 42.1209C91.4741 43.79 91.751 45.073 92.3048 45.97C92.8586 46.867 93.6814 47.3154 94.7734 47.3154C95.8108 47.3154 96.6102 46.8748 97.1718 45.9934C97.7334 45.112 98.0181 43.8446 98.0259 42.1911V41.4072ZM118.862 50.2871H114.779L108.742 39.6874V50.2871H104.635V33.2526H108.742L114.767 43.8524V33.2526H118.862V50.2871ZM132.339 43.0685H125.881V47.1282H133.509V50.2871H121.775V33.2526H133.533V36.4232H125.881V40.0149H132.339V43.0685ZM144.284 45.7594C144.284 45.1588 144.069 44.6908 143.64 44.3555C143.219 44.0201 142.474 43.673 141.406 43.3142C140.337 42.9554 139.464 42.6083 138.785 42.2729C136.578 41.1888 135.474 39.6991 135.474 37.8037C135.474 36.86 135.747 36.0293 136.293 35.3117C136.847 34.5864 137.627 34.0248 138.633 33.627C139.639 33.2214 140.77 33.0186 142.026 33.0186C143.25 33.0186 144.346 33.237 145.313 33.6738C146.288 34.1106 147.045 34.7346 147.583 35.5457C148.121 36.3491 148.39 37.2695 148.39 38.3068H144.296C144.296 37.6126 144.081 37.0745 143.652 36.6923C143.231 36.3101 142.658 36.119 141.932 36.119C141.199 36.119 140.618 36.2828 140.189 36.6104C139.768 36.9302 139.557 37.3397 139.557 37.8388C139.557 38.2756 139.791 38.6734 140.259 39.0322C140.727 39.3832 141.55 39.7498 142.728 40.1319C143.906 40.5063 144.873 40.9119 145.629 41.3487C147.47 42.4094 148.39 43.8719 148.39 45.736C148.39 47.2257 147.829 48.3957 146.706 49.2459C145.583 50.096 144.042 50.5211 142.084 50.5211C140.704 50.5211 139.452 50.2754 138.329 49.784C137.213 49.2849 136.371 48.6063 135.802 47.7483C135.24 46.8826 134.959 45.8881 134.959 44.7649H139.078C139.078 45.6775 139.312 46.3522 139.78 46.789C140.255 47.2179 141.024 47.4324 142.084 47.4324C142.763 47.4324 143.297 47.2881 143.687 46.9995C144.085 46.7032 144.284 46.2898 144.284 45.7594ZM155.187 50.2871H151.092V33.2526H155.187V50.2871ZM168.243 47.1048H162.616L161.633 50.2871H157.246L163.493 33.2526H167.354L173.648 50.2871H169.238L168.243 47.1048ZM163.599 43.9343H167.26L165.424 38.026L163.599 43.9343Z" fill="white"/>
<defs>
<clipPath id="clip0_28_4550">
<rect width="51" height="51" fill="white" transform="translate(0 0.287109)"/>
</clipPath>
</defs>
</svg>
