<svg aria-hidden="true" style="position: absolute; width: 0; height: 0; overflow: hidden;" version="1.1" xmlns="http://www.w3.org/2000/svg" xmlns:xlink="http://www.w3.org/1999/xlink">
<defs>
<symbol id="icon-google" viewBox="0 0 32 32">
<path fill="#fff" style="fill: var(--color1, #fff)" d="M30.769 13.261h-14.629c0 1.521 0 4.564-0.009 6.085h8.477c-0.325 1.521-1.476 3.651-3.104 4.724-0.002-0.002-0.003 0.009-0.006 0.008-2.164 1.429-5.019 1.753-7.139 1.327-3.323-0.66-5.953-3.070-7.021-6.131 0.006-0.005 0.011-0.047 0.016-0.050-0.668-1.899-0.668-4.441 0-5.962h-0.002c0.861-2.796 3.57-5.347 6.898-6.046 2.676-0.567 5.696 0.047 7.917 2.125 0.295-0.289 4.088-3.992 4.372-4.293-7.588-6.872-19.737-4.454-24.284 4.419h-0.002c0 0 0.002 0-0.008 0.017-2.249 4.359-2.156 9.495 0.016 13.645-0.006 0.005-0.011 0.008-0.016 0.012 1.968 3.818 5.549 6.747 9.863 7.862 4.583 1.202 10.417 0.38 14.324-3.154 0.002 0.002 0.003 0.003 0.005 0.005 3.311-2.982 5.372-8.062 4.33-14.593z"></path>
</symbol>
<symbol id="icon-in" viewBox="0 0 32 32">
<path d="M26.329 24.715h-3.973v-7.235c0-1.985-0.841-3.092-2.35-3.092-1.642 0-2.616 1.154-2.616 3.092v7.235h-3.973v-13.438h3.973v1.511c0 0 1.247-2.276 4.055-2.276 2.81 0 4.884 1.784 4.884 5.476 0 3.691 0 8.726 0 8.726zM7.608 7.93c-1.070 0-1.937-0.867-1.937-1.937s0.867-1.936 1.937-1.936c1.069 0 1.936 0.867 1.936 1.936s-0.867 1.937-1.936 1.937zM5.671 24.715h3.873v-12.911h-3.873v12.911z"></path>
</symbol>
<symbol id="icon-facebook" viewBox="0 0 22 32">
<path d="M13.13 22.532v-9.96h3.225l0.527-4.427h-3.752v-2.156c0-1.14 0.031-2.271 1.73-2.271h1.721v-3.165c0-0.048-1.478-0.155-2.974-0.155-3.123 0-5.079 1.834-5.079 5.201v2.545h-3.451v4.427h3.451v9.96h4.601z"></path>
</symbol>
<symbol id="icon-explore-Indonesia" viewBox="0 0 83 32">
<path d="M18.268 7.936v-3.806c0-0.42-0.341-0.761-0.761-0.761h-0.761v-2.283c0-0.42-0.341-0.761-0.761-0.761-1.078 0-2.728-0.083-4.665 1.078-1.204-0.358-2.056-0.317-2.946-0.317-0.42 0-0.761 0.341-0.761 0.761v1.522h-0.761c-0.42 0-0.761 0.341-0.761 0.761v3.806c0 3.1 2.328 5.666 5.328 6.042v9.943c0 0.42 0.341 0.761 0.761 0.761s0.761-0.341 0.761-0.761v-2.664h1.142c2.308 0 4.186-1.878 4.186-4.186v-1.142c0-0.42-0.341-0.761-0.761-0.761h-1.903c-1.011 0-1.94 0.36-2.664 0.959v-2.149c2.995-0.371 5.328-2.924 5.328-6.041zM16.746 7.936c0 1.355-0.599 2.578-1.546 3.417 0.015-0.122 0.024-0.246 0.024-0.372 0-1.928-0.721-3.69-1.906-5.032 1.005-0.686 2.197-1.057 3.428-1.057v3.045zM15.224 1.847v1.676c-0.141 0.029-0.28 0.061-0.419 0.098-0.494-0.553-1.057-1.024-1.672-1.404 0.665-0.243 1.37-0.369 2.091-0.369zM9.134 2.608c1.512 0 2.981 0.552 4.123 1.607-0.377 0.195-0.738 0.421-1.080 0.678-0.885-0.665-1.919-1.143-3.042-1.371v-0.914zM7.612 7.936v-3.045c3.358 0 6.089 2.732 6.089 6.089 0 0.851-0.702 1.544-1.562 1.522-2.674-0.066-4.527-2.191-4.527-4.566zM15.604 16.69h1.142v0.381c0 1.469-1.195 2.664-2.664 2.664h-1.142v-0.381c0-1.469 1.195-2.664 2.664-2.664z"></path>
<path d="M27.631 10.249h-3.084v1.939h3.643v1.509h-5.605v-8.136h5.616v1.514h-3.654v1.716h3.084v1.458zM32.173 8.265l1.33-2.704h2.241l-2.274 4.034 2.336 4.101h-2.263l-1.369-2.755-1.369 2.755h-2.257l2.33-4.101-2.269-4.034h2.235l1.33 2.704zM38.56 10.936v2.76h-1.961v-8.136h3.247c0.622 0 1.172 0.115 1.648 0.346 0.481 0.227 0.851 0.553 1.112 0.978 0.264 0.421 0.397 0.9 0.397 1.436 0 0.793-0.285 1.429-0.855 1.905-0.566 0.473-1.345 0.71-2.336 0.71h-1.252zM38.56 9.422h1.285c0.38 0 0.669-0.095 0.866-0.285 0.201-0.19 0.302-0.458 0.302-0.805 0-0.38-0.102-0.684-0.307-0.911s-0.484-0.343-0.838-0.346h-1.308v2.347zM46.165 12.188h3.414v1.509h-5.375v-8.136h1.961v6.627zM57.088 9.797c0 0.793-0.147 1.496-0.441 2.107s-0.714 1.082-1.258 1.414c-0.54 0.328-1.157 0.492-1.849 0.492s-1.308-0.158-1.844-0.475c-0.536-0.32-0.956-0.777-1.257-1.369-0.298-0.592-0.455-1.272-0.469-2.040v-0.458c0-0.797 0.145-1.499 0.436-2.107 0.295-0.611 0.714-1.082 1.258-1.414 0.547-0.332 1.17-0.497 1.866-0.497 0.689 0 1.304 0.164 1.844 0.492s0.96 0.795 1.258 1.403c0.301 0.603 0.454 1.296 0.458 2.079v0.374zM55.093 9.456c0-0.808-0.136-1.421-0.408-1.838-0.268-0.421-0.654-0.631-1.157-0.631-0.983 0-1.503 0.738-1.559 2.213l-0.006 0.598c0 0.797 0.132 1.41 0.397 1.838s0.658 0.643 1.179 0.643c0.495 0 0.877-0.21 1.145-0.631s0.404-1.026 0.408-1.816v-0.374zM61.273 10.825h-1.062v2.872h-1.961v-8.136h3.202c0.965 0 1.719 0.214 2.263 0.643s0.816 1.034 0.816 1.816c0 0.566-0.116 1.036-0.346 1.408-0.227 0.373-0.585 0.674-1.073 0.905l1.699 3.28v0.084h-2.101l-1.436-2.872zM60.212 9.31h1.241c0.373 0 0.652-0.097 0.838-0.291 0.19-0.197 0.285-0.471 0.285-0.821s-0.095-0.624-0.285-0.821c-0.19-0.201-0.469-0.302-0.838-0.302h-1.241v2.235zM70.912 10.249h-3.084v1.939h3.643v1.509h-5.604v-8.136h5.616v1.514h-3.655v1.716h3.084v1.458z"></path>
<path d="M24.675 24.204h-1.956v-8.136h1.956v8.136zM32.983 24.204h-1.95l-2.883-5.063v5.063h-1.961v-8.136h1.961l2.878 5.063v-5.063h1.956v8.136zM34.375 24.204v-8.136h2.621c0.719 0 1.365 0.164 1.939 0.492 0.574 0.324 1.021 0.784 1.341 1.38 0.324 0.592 0.488 1.257 0.492 1.995v0.374c0 0.745-0.158 1.414-0.475 2.006-0.313 0.589-0.756 1.050-1.33 1.386-0.57 0.331-1.207 0.499-1.911 0.503h-2.677zM36.336 17.583v5.113h0.682c0.563 0 0.995-0.199 1.296-0.598 0.302-0.402 0.453-0.998 0.453-1.788v-0.352c0-0.786-0.151-1.378-0.453-1.777s-0.741-0.598-1.319-0.598h-0.659zM48.813 20.304c0 0.793-0.148 1.496-0.442 2.107s-0.713 1.082-1.257 1.414c-0.54 0.328-1.157 0.492-1.85 0.492s-1.308-0.158-1.844-0.475c-0.536-0.32-0.956-0.777-1.257-1.369-0.298-0.592-0.455-1.272-0.469-2.040v-0.458c0-0.797 0.145-1.499 0.436-2.107 0.294-0.611 0.713-1.082 1.257-1.414 0.548-0.332 1.17-0.497 1.866-0.497 0.689 0 1.304 0.164 1.844 0.492s0.959 0.795 1.257 1.403c0.302 0.603 0.455 1.296 0.459 2.079v0.374zM46.818 19.963c0-0.808-0.136-1.421-0.408-1.838-0.268-0.421-0.654-0.631-1.157-0.631-0.983 0-1.503 0.738-1.559 2.213l-0.006 0.598c0 0.797 0.132 1.41 0.397 1.838s0.657 0.643 1.179 0.643c0.495 0 0.877-0.21 1.145-0.631s0.404-1.026 0.408-1.816v-0.374zM56.77 24.204h-1.95l-2.883-5.063v5.063h-1.962v-8.136h1.962l2.878 5.063v-5.063h1.956v8.136zM63.207 20.757h-3.084v1.939h3.643v1.509h-5.604v-8.136h5.616v1.514h-3.655v1.715h3.084v1.458zM68.912 22.042c0-0.287-0.103-0.51-0.308-0.671-0.201-0.16-0.557-0.326-1.067-0.497s-0.928-0.337-1.252-0.497c-1.054-0.518-1.581-1.229-1.581-2.135 0-0.451 0.13-0.848 0.391-1.19 0.265-0.346 0.637-0.615 1.118-0.805 0.48-0.194 1.021-0.291 1.621-0.291 0.585 0 1.108 0.104 1.57 0.313 0.466 0.209 0.827 0.507 1.084 0.894 0.257 0.384 0.385 0.823 0.385 1.319h-1.955c0-0.331-0.103-0.589-0.308-0.771-0.201-0.183-0.475-0.274-0.822-0.274-0.35 0-0.628 0.078-0.832 0.235-0.201 0.153-0.302 0.348-0.302 0.587 0 0.209 0.112 0.399 0.335 0.57 0.224 0.168 0.617 0.343 1.179 0.525 0.563 0.179 1.024 0.372 1.386 0.581 0.879 0.507 1.319 1.205 1.319 2.095 0 0.712-0.268 1.27-0.804 1.676s-1.272 0.609-2.208 0.609c-0.659 0-1.257-0.117-1.793-0.352-0.533-0.238-0.935-0.563-1.207-0.972-0.268-0.413-0.403-0.888-0.403-1.425h1.967c0 0.436 0.112 0.758 0.335 0.967 0.227 0.205 0.594 0.307 1.1 0.307 0.324 0 0.579-0.069 0.766-0.207 0.19-0.142 0.285-0.339 0.285-0.592zM74.119 24.204h-1.956v-8.136h1.956v8.136zM80.355 22.684h-2.688l-0.469 1.52h-2.095l2.984-8.136h1.844l3.006 8.136h-2.106l-0.475-1.52zM78.137 21.17h1.749l-0.877-2.822-0.872 2.822z"></path>
</symbol>
<symbol id="icon-circle" viewBox="0 0 32 32">
<path d="M29.419 14.194c0 7.411-6.008 13.419-13.419 13.419s-13.419-6.008-13.419-13.419c0-7.411 6.008-13.419 13.419-13.419s13.419 6.008 13.419 13.419z"></path>
<path d="M20.721 15.646c0.266 0.266 0.266 0.697 0 0.963s-0.697 0.266-0.963 0l-3.722-3.722-3.777 3.777c-0.266 0.266-0.697 0.266-0.963 0s-0.266-0.697 0-0.963l4.092-4.092c0.135-0.136 0.314-0.202 0.491-0.199 0.248-0.106 0.547-0.058 0.75 0.144l4.092 4.092z"></path>
</symbol>
<symbol id="icon-Circle-1" viewBox="0 0 32 32">
<path d="M16 32c8.837 0 16-7.163 16-16s-7.163-16-16-16c-8.837 0-16 7.163-16 16s7.163 16 16 16z"></path>
</symbol>
<symbol id="icon-search" viewBox="0 0 32 32">
<path d="M22.222 19.556h-1.404l-0.498-0.48c1.742-2.027 2.791-4.658 2.791-7.52 0-6.382-5.173-11.556-11.556-11.556s-11.556 5.173-11.556 11.556c0 6.382 5.173 11.556 11.556 11.556 2.862 0 5.493-1.049 7.52-2.791l0.48 0.498v1.404l8.889 8.871 2.649-2.649-8.871-8.889zM11.556 19.556c-4.427 0-8-3.573-8-8s3.573-8 8-8c4.427 0 8 3.573 8 8s-3.573 8-8 8z"></path>
</symbol>
<symbol id="icon-3-sticks" viewBox="0 0 51 32">
<path d="M0.093 32h48.025v-5.333h-48.025v5.333zM0.093 18.667h48.025v-5.333h-48.025v5.333zM0.093 0v5.333h48.025v-5.333h-48.025z"></path>
</symbol>
</defs>
</svg>
